<svg width="27" height="19" viewBox="0 0 27 19" fill="none" xmlns="http://www.w3.org/2000/svg">
<path d="M1.4 16.2808C0.826049 16.6122 0.629399 17.3461 0.960769 17.9201C1.29214 18.494 2.02605 18.6907 2.6 18.3593L1.4 16.2808ZM26.23 4.31065C26.4016 3.67049 26.0217 3.01249 25.3815 2.84096L14.9495 0.0457102C14.3093 -0.125819 13.6513 0.25408 13.4798 0.894238C13.3083 1.5344 13.6882 2.1924 14.3283 2.36393L23.6012 4.8486L21.1166 14.1215C20.945 14.7616 21.3249 15.4196 21.9651 15.5912C22.6052 15.7627 23.2633 15.3828 23.4348 14.7427L26.23 4.31065ZM2.6 18.3593L25.6709 5.0393L24.4709 2.96084L1.4 16.2808L2.6 18.3593Z" fill="black"/>
</svg>
