<svg width="1336" height="476" viewBox="0 0 1336 476" fill="none" xmlns="http://www.w3.org/2000/svg">
<path d="M290 208C290 219.046 298.954 228 310 228H499C510.046 228 519 219.046 519 208V20C519 8.95431 527.954 0 539 0H790C801.046 0 810 8.95431 810 20V208C810 219.046 818.954 228 830 228H1026C1037.05 228 1046 219.046 1046 208V20C1046 8.95431 1054.95 0 1066 0H1316C1327.05 0 1336 8.9543 1336 20V227C1336 238.046 1327.05 247 1316 247H1090.92C1079.87 247 1070.92 255.954 1070.92 267V456C1070.92 467.046 1061.97 476 1050.92 476H800.92C789.874 476 780.92 467.046 780.92 456V267C780.92 255.954 771.966 247 760.92 247H566.816C555.771 247 546.816 255.954 546.816 267V456C546.816 467.046 537.862 476 526.816 476H275.816C264.771 476 255.816 467.046 255.816 456V267C255.816 255.954 246.862 247 235.816 247H20C8.95431 247 0 238.046 0 227V20C0 8.9543 8.95431 0 20 0H270C281.046 0 290 8.95431 290 20V208Z" fill="#C2D3C6"/>
</svg>
